<svg width="294" height="337" xmlns="http://www.w3.org/2000/svg" xmlns:xlink="http://www.w3.org/1999/xlink" xml:space="preserve" overflow="hidden"><defs><clipPath id="clip0"><rect x="871" y="1193" width="294" height="337"/></clipPath></defs><g clip-path="url(#clip0)" transform="translate(-871 -1193)"><path d="M198.79 205.942 6.34058 194.935 31.5 177.435" stroke="#000000" stroke-width="12.6812" stroke-linecap="round" stroke-linejoin="round" stroke-miterlimit="10" fill="none" transform="matrix(1 0 0 1.58293 871 1193.49)"/><path d="M284.464 129.601 198.79 205.942" stroke="#000000" stroke-width="12.6812" stroke-linecap="round" stroke-linejoin="round" stroke-miterlimit="10" fill="none" transform="matrix(1 0 0 1.58293 871 1193.49)"/><path d="M6.54348 164.246C16.1812 164.804 16.7391 154.659 26.3768 155.217 36.0145 155.775 35.4058 165.92 45.0435 166.428 54.6812 166.986 55.2391 156.841 64.8768 157.399 74.5145 157.957 73.9058 168.101 83.5435 168.609 93.1812 169.167 93.7391 159.022 103.377 159.58 113.015 160.138 112.406 170.283 122.043 170.79 131.681 171.348 132.239 161.203 141.877 161.761 151.515 162.319 150.906 172.464 160.543 172.971 170.181 173.529 170.739 163.384 180.377 163.942 190.014 164.5 189.406 174.645 199.044 175.152" stroke="#000000" stroke-width="12.6812" stroke-linecap="round" stroke-linejoin="round" stroke-miterlimit="10" fill="none" transform="matrix(1 0 0 1.58293 871 1193.49)"/><path d="M284.667 98.913 198.993 175.304" stroke="#000000" stroke-width="12.6812" stroke-linecap="round" stroke-linejoin="round" stroke-miterlimit="10" fill="none" transform="matrix(1 0 0 1.58293 871 1193.49)"/><path d="M200.464 149.993 8.01449 138.935 34.7971 121.08" stroke="#000000" stroke-width="12.6812" stroke-linecap="round" stroke-linejoin="round" stroke-miterlimit="10" fill="none" transform="matrix(1 0 0 1.58293 871 1193.49)"/><path d="M286.138 73.6015 200.464 149.993" stroke="#000000" stroke-width="12.6812" stroke-linecap="round" stroke-linejoin="round" stroke-miterlimit="10" fill="none" transform="matrix(1 0 0 1.58293 871 1193.49)"/><path d="M8.42029 77.6594 200.87 88.7174" stroke="#000000" stroke-width="12.6812" stroke-linecap="round" stroke-linejoin="round" stroke-miterlimit="10" fill="none" transform="matrix(1 0 0 1.58293 871 1193.49)"/><path d="M8.42029 77.6594 93.8406 6.34058 286.239 17.3986 200.87 88.7174" stroke="#000000" stroke-width="12.6812" stroke-linecap="round" stroke-linejoin="round" stroke-miterlimit="10" fill="none" transform="matrix(1 0 0 1.58293 871 1193.49)"/><path d="M9.58696 109.058C19.2246 109.616 19.7826 99.471 29.4203 100.029 39.058 100.587 38.4493 110.732 48.087 111.239 57.7246 111.797 58.2826 101.652 67.9203 102.21 77.558 102.768 76.9493 112.913 86.587 113.42 96.2246 113.978 96.7826 103.833 106.42 104.391 116.058 104.949 115.449 115.094 125.087 115.601 134.725 116.159 135.283 106.014 144.92 106.572 154.558 107.13 153.949 117.275 163.587 117.783 173.225 118.341 173.783 108.196 183.42 108.754 193.058 109.312 192.449 119.457 202.087 119.964" stroke="#000000" stroke-width="12.6812" stroke-linecap="round" stroke-linejoin="round" stroke-miterlimit="10" fill="none" transform="matrix(1 0 0 1.58293 871 1193.49)"/><path d="M287.659 43.7246 201.986 120.116" stroke="#000000" stroke-width="12.6812" stroke-linecap="round" stroke-linejoin="round" stroke-miterlimit="10" fill="none" transform="matrix(1 0 0 1.58293 871 1193.49)"/></g></svg>