<svg width="398" height="380" xmlns="http://www.w3.org/2000/svg" xmlns:xlink="http://www.w3.org/1999/xlink" xml:space="preserve" overflow="hidden"><defs><clipPath id="clip0"><rect x="1633" y="1184" width="398" height="380"/></clipPath></defs><g clip-path="url(#clip0)" transform="translate(-1633 -1184)"><path d="M110.521 127.068 9.70822 127.068 6.69533 117.503C2.29554 103.682 0 87.4697 0 70.5879 0 53.7061 2.29554 37.4938 6.69533 23.6728L9.70822 14.108 110.521 14.108 113.534 23.6728C117.933 37.4938 120.229 53.7061 120.229 70.5879 120.229 87.4219 117.933 103.682 113.534 117.455L110.521 127.068ZM30.3203 99.6647 89.9087 99.6647C91.8216 90.7695 92.8259 80.87 92.8259 70.6357 92.8259 60.3536 91.8216 50.5019 89.9087 41.6067L30.3203 41.6067C28.4073 50.5497 27.403 60.4014 27.403 70.6357 27.403 80.87 28.4073 90.7217 30.3203 99.6647Z" transform="matrix(1.02151 0 0 1 1633 1185.29)"/><path d="M155.379 0 93.352 0C88.5218 19.7034 85.6045 44.0935 85.6045 70.5879 85.6045 97.0822 88.5218 121.472 93.352 141.176L155.379 141.176C160.21 121.472 163.127 97.0822 163.127 70.5879 163.127 44.0935 160.21 19.7034 155.379 0Z" transform="matrix(1.02151 0 0 1 1633 1185.29)"/><path d="M185.987 21.6163 155.379 0C150.549 19.7034 147.632 44.0935 147.632 70.5879 147.632 97.0822 150.549 121.472 155.379 141.176L185.987 119.559C189.334 105.882 191.343 89 191.343 70.5879 191.343 52.2236 189.334 35.2939 185.987 21.6163Z" transform="matrix(1.02151 0 0 1 1633 1185.29)"/><path d="M184.552 40.7937C181.922 49.115 180.343 59.4449 180.343 70.6357 180.343 81.8265 181.922 92.1564 184.552 100.478L256.67 100.478C259.3 92.1564 260.879 81.8265 260.879 70.6357 260.879 59.4449 259.3 49.115 256.67 40.7937L184.552 40.7937Z" transform="matrix(1.02151 0 0 1 1633 1185.29)"/><path d="M351.026 377.425 93.2563 377.425C42.4675 377.425 1.14777 336.105 1.14777 285.317 1.14777 234.528 42.4675 193.208 93.2563 193.208L297.512 193.208C325.632 193.208 348.54 170.348 348.54 142.18 348.54 114.06 325.68 91.1999 297.512 91.1999L199.425 91.1999 199.425 50.0715 297.512 50.0715C348.301 50.0715 389.62 91.3912 389.62 142.18 389.62 192.969 348.301 234.289 297.512 234.289L93.2563 234.289C65.136 234.289 42.2284 257.148 42.2284 285.317 42.2284 313.437 65.0881 336.345 93.2563 336.345L351.026 336.345 351.026 377.425Z" transform="matrix(1.02151 0 0 1 1633 1185.29)"/></g></svg>