<svg width="278" height="305" xmlns="http://www.w3.org/2000/svg" xmlns:xlink="http://www.w3.org/1999/xlink" xml:space="preserve" overflow="hidden"><defs><clipPath id="clip0"><rect x="2007" y="280" width="278" height="305"/></clipPath></defs><g clip-path="url(#clip0)" transform="translate(-2007 -280)"><path d="M127.643 173.625C125.822 173.625 124.014 173.032 122.517 171.884L3.29201 80.4266C1.21389 78.8301 0 76.3627 0 73.7503L0 60.6812C0 57.1978 2.15069 54.0708 5.40312 52.8239L141.662 0.560763C144.235-0.428819 147.131-0.092361 149.407 1.45798L274.312 86.3905C276.615 87.9607 277.993 90.56 277.993 93.3506L277.993 106.42C277.993 109.824 275.942 112.892 272.801 114.191L130.862 172.992C129.827 173.414 128.731 173.625 127.643 173.625ZM16.8295 69.594 128.91 155.576 261.164 100.786 261.164 97.7971 143.582 17.8455 16.8295 66.4669 16.8295 69.594Z" fill="#231F20" transform="matrix(1 0 0 1.09452 2007 280.275)"/><path d="M127.643 225.895C125.822 225.895 124.014 225.301 122.517 224.16L3.29201 132.69C1.21389 131.1 0 128.632 0 126.013L0 112.944C0 109.461 2.15069 106.334 5.40312 105.087L39.4711 92.0179C43.8121 90.3488 48.6742 92.5193 50.3433 96.8603 52.0058 101.201 49.842 106.07 45.501 107.733L16.8361 118.73 16.8361 121.864 128.91 207.845 261.164 153.055 261.164 150.067 229.049 128.23C225.202 125.618 224.206 120.379 226.819 116.54 229.431 112.694 234.669 111.697 238.509 114.31L274.306 138.654C276.608 140.224 277.987 142.823 277.987 145.614L277.987 158.683C277.987 162.087 275.935 165.155 272.795 166.454L130.856 225.255C129.827 225.684 128.731 225.895 127.643 225.895Z" fill="#231F20" transform="matrix(1 0 0 1.09452 2007 280.275)"/><path d="M127.643 278.158C125.822 278.158 124.014 277.565 122.517 276.423L3.29201 184.953C1.21389 183.363 0 180.896 0 178.277L0 165.207C0 161.724 2.15069 158.597 5.40312 157.35L39.4711 144.281C43.8121 142.619 48.6808 144.782 50.3433 149.123 52.0058 153.464 49.842 158.333 45.501 159.996L16.8295 171 16.8295 174.133 128.91 260.108 261.164 205.318 261.164 202.33 229.009 180.467C225.163 177.854 224.167 172.623 226.779 168.777 229.392 164.93 234.63 163.934 238.469 166.547L274.306 190.917C276.608 192.48 277.987 195.086 277.987 197.877L277.987 210.946C277.987 214.35 275.935 217.418 272.795 218.724L130.856 277.525C129.827 277.947 128.731 278.158 127.643 278.158Z" fill="#231F20" transform="matrix(1 0 0 1.09452 2007 280.275)"/></g></svg>