<svg width="300" height="345" xmlns="http://www.w3.org/2000/svg" xmlns:xlink="http://www.w3.org/1999/xlink" xml:space="preserve" overflow="hidden"><defs><clipPath id="clip0"><rect x="1427" y="1185" width="300" height="345"/></clipPath></defs><g clip-path="url(#clip0)" transform="translate(-1427 -1185)"><path d="M193.994 294.775 193.994 278.018 6.48649 172.673 6.48649 189.489 193.994 294.775ZM45.5856 105.646C45.7658 105.706 45.9459 105.826 46.1261 105.946L193.994 188.408 193.994 171.652 6.48649 66.3063 6.48649 83.0631 45.5856 105.646ZM245.405 145.706 200.541 171.592 200.541 188.348 236.396 167.688C236.937 167.327 237.598 167.087 238.258 167.087 240.06 167.087 241.502 168.529 241.502 170.33L241.502 252.432 241.502 252.432C241.502 253.574 240.901 254.655 239.88 255.255L200.541 277.958 200.541 294.715 293.514 241.081 293.514 224.264 257.658 244.925C257.117 245.285 256.456 245.526 255.796 245.526 253.994 245.526 252.553 244.084 252.553 242.282L252.553 195.015 252.553 160.18 252.553 160.18C252.553 159.039 253.153 157.958 254.174 157.357L293.514 134.655 293.514 117.898 245.405 145.706ZM290.27 112.312 102.703 6.96697 9.72973 60.6607 197.297 166.006 290.27 112.312ZM259.039 193.213 298.378 215.916 298.378 215.916 298.378 215.916 298.438 215.916 298.438 215.916 298.438 215.916 298.438 215.916 298.438 215.916 298.438 215.916 298.438 215.916 298.438 215.916 298.438 215.916 298.438 215.916 298.438 215.916 298.438 215.916 298.499 215.976 298.499 215.976 298.559 216.036 298.559 216.036 298.559 216.036 298.559 216.036 298.559 216.036 298.559 216.036 298.559 216.036 298.559 216.036 298.559 216.036 298.559 216.036 298.559 216.036 298.559 216.036 298.559 216.036 298.559 216.036 298.559 216.036 298.559 216.036 298.619 216.096 298.619 216.096 298.619 216.096 298.619 216.096 298.619 216.096 298.619 216.096 298.619 216.096 298.619 216.096 298.619 216.096 298.679 216.156 298.679 216.156 298.679 216.156 298.739 216.216 298.739 216.216 298.739 216.216 298.799 216.276 298.799 216.276 298.799 216.276 298.799 216.276 298.799 216.276 298.859 216.336 298.859 216.336 298.859 216.336 298.859 216.336 298.859 216.336 298.859 216.336 298.859 216.336 298.859 216.336 298.859 216.336 298.859 216.336 298.859 216.336 298.859 216.336 298.859 216.336 298.859 216.336 298.859 216.336 298.859 216.336 298.859 216.336 298.859 216.336 298.859 216.336 298.859 216.336 298.859 216.336 298.859 216.336 298.859 216.336 298.859 216.336 298.859 216.336 298.859 216.336 298.859 216.336 298.859 216.336 298.859 216.336 298.859 216.336 298.859 216.336 298.859 216.336 298.859 216.336 298.859 216.336 298.859 216.336 298.859 216.336 298.859 216.336 298.859 216.336 298.859 216.336 298.859 216.336 298.859 216.336 298.859 216.336 298.859 216.336 298.859 216.336 298.859 216.336 298.859 216.336 298.859 216.336 298.859 216.336 298.859 216.336 298.859 216.336 298.859 216.336 298.859 216.336 298.859 216.336 298.859 216.336 298.859 216.336 298.859 216.336 298.859 216.336 298.859 216.336 298.859 216.336 298.859 216.336 298.859 216.336 298.859 216.336 298.859 216.336 298.859 216.336 298.859 216.336 298.859 216.336 298.859 216.336 298.859 216.336 298.859 216.336 298.859 216.336 298.859 216.336 298.859 216.336 298.859 216.336 298.859 216.336 298.859 216.336 298.859 216.336 298.859 216.336 298.859 216.336 298.859 216.336 298.859 216.336 298.859 216.336 298.859 216.336 298.859 216.336 298.859 216.336 298.859 216.336 298.859 216.336 298.859 216.336 298.859 216.336 298.859 216.336 298.859 216.336 298.859 216.336 298.859 216.336 298.859 216.336 298.859 216.336 298.859 216.336 298.859 240.661C298.859 241.982 298.078 243.123 296.937 243.604L197.778 300.781 197.718 300.841 197.598 300.901 197.538 300.901 197.477 300.901 197.417 300.901 197.357 300.901 197.297 300.901 197.237 300.901 197.237 300.901 197.177 300.901 197.177 300.901 197.117 300.901 197.117 300.901 197.057 300.901 197.057 300.901C196.937 300.961 196.877 300.961 196.757 300.961L196.697 300.961 196.697 300.961 196.637 300.961 196.637 300.961 196.577 300.961 196.577 300.961 196.517 300.961 196.517 300.961 196.456 300.961 196.456 300.961 196.396 300.961 196.396 300.961 196.336 300.961 196.336 300.961 196.276 300.961 196.276 300.961 196.216 300.961 196.216 300.961 196.156 300.961 196.156 300.961 196.096 300.961 196.096 300.961 196.036 300.961 196.036 300.961 195.976 300.961 195.976 300.961 195.916 300.961 195.916 300.961 195.856 300.961 195.856 300.961 195.796 300.961 195.796 300.961 195.736 300.961 195.736 300.961 195.676 300.961C195.556 300.961 195.495 300.901 195.375 300.901L195.375 300.901 195.315 300.901 195.315 300.901 195.255 300.901 195.255 300.901 195.195 300.901 195.135 300.901 195.075 300.901 195.015 300.901 194.955 300.901 194.895 300.901 194.835 300.901 194.775 300.901C194.715 300.841 194.655 300.841 194.535 300.781L1.92192 194.294C0.780781 193.814 0 192.673 0 191.351L0 167.027 0 167.027 0 167.027 0 167.027 0 167.027 0 167.027 0 167.027 0 167.027 0 167.027 0 166.967 0 166.967 0 166.967 0 166.967 0 166.967 0 166.967 0 166.967 0 166.967 0 166.967 0 166.967 0 166.967 0 166.967 0 166.967 0 166.967 0 166.967 0 166.967 0 166.967 0 166.967 0 166.967 0 166.967 0 166.967 0 166.967 0 166.967 0 166.967 0 166.967 0 166.967 0 166.967 0 166.967 0 166.967 0 166.967 0 166.967 0 166.967 0 166.907 0 166.907 0 166.907 0 166.907 0 166.907 0 166.907 0 166.907 0 166.907 0 166.907 0 166.907 0 166.907 0 166.907 0 166.907 0 166.907 0 166.907 0 166.907 0 166.907 0 166.907 0 166.907 0 166.907 0 166.907 0 166.907 0 166.907 0 166.907 0 166.847 0 166.847 0 166.847 0 166.847 0 166.847 0 166.847 0.0600601 166.787 0.0600601 166.787 0.0600601 166.787 0.12012 166.727C0.24024 166.547 0.36036 166.366 0.540541 166.186L0.600601 166.126 0.600601 166.126 0.660661 166.066 0.660661 166.066 0.720721 166.006 0.720721 166.006 0.780781 165.946 0.780781 165.946 0.840841 165.886 0.840841 165.886 0.900901 165.826 0.900901 165.826 0.960961 165.766 0.960961 165.766 1.02102 165.706 1.02102 165.706 1.08108 165.646 1.08108 165.646 1.14114 165.586 1.14114 165.586 1.2012 165.526 1.2012 165.526 1.26126 165.465 1.26126 165.465 40.6006 142.763 40.6006 111.652 1.56156 89.1291C0.780781 87.3874 0 86.2462 0 84.9249L0 60.6607 0 60.6607 0 60.6607 0 60.6607 0 60.6607 0 60.6607 0 60.6607 0 60.6607 0 60.6607 0 60.6006 0 60.6006 0 60.6006 0 60.5405 0 60.5405 0 60.3604 0 60.3604 0 60.3604 0 60.3604 0 60.3604 0 60.3604 0 60.3604 0 60.3604 0 60.3604 0.0600601 60.1802 0.0600601 60.1802 0.0600601 60.1201 0.0600601 60.1201 0.0600601 60.1201 0.0600601 60.1201 0.12012 60 0.12012 60 0.18018 59.8799 0.18018 59.8799 0.18018 59.8799 0.18018 59.8799 0.18018 59.8198 0.18018 59.8198 0.18018 59.8198 0.18018 59.8198 0.18018 59.8198 0.18018 59.8198 0.18018 59.8198 0.18018 59.8198 0.18018 59.8198 0.18018 59.8198 0.18018 59.8198 0.18018 59.8198 0.18018 59.8198 0.18018 59.8198 0.18018 59.8198 0.18018 59.8198 0.18018 59.8198 0.18018 59.8198 0.18018 59.8198 0.18018 59.8198 0.18018 59.8198 0.18018 59.8198 0.18018 59.8198 0.18018 59.8198 0.24024 59.7598C0.600601 58.7988 0.720721 58.6186 0.900901 58.4384L0.960961 58.3784 0.960961 58.3784 1.02102 58.3183 1.02102 58.3183 1.08108 58.2583 1.08108 58.2583 1.08108 58.2583 1.08108 58.2583 1.14114 58.1982 1.14114 58.1982 1.2012 58.1381 1.2012 58.1381 1.26126 58.0781 1.32132 58.018 1.32132 58.018 1.38138 57.958 1.44144 57.8979 1.44144 57.8979 1.5015 57.8378 1.5015 57.8378 1.56156 57.7778 1.56156 57.7778 101.021 0.36036C101.982-0.18018 103.183-0.24024 104.264 0.36036L298.258 109.429 298.258 109.429 298.258 109.429 298.258 109.429 298.258 109.429 298.258 109.429 298.258 109.429 298.258 109.429 298.258 109.429 298.258 109.429 298.318 109.429 298.318 109.429 298.378 109.489 298.378 109.489 298.378 109.489 298.378 109.489 298.378 109.489 298.378 109.489 298.378 109.489 298.378 109.489 298.378 109.489 298.378 109.489 298.438 109.55 298.438 109.55 298.438 109.55 298.438 109.55 298.438 109.55 298.438 109.55 298.438 109.55 298.438 109.55 298.438 109.55 298.438 109.55 298.438 109.55 298.438 109.55 298.438 109.55 298.438 109.55 298.438 109.55 298.438 109.55 298.438 109.55 298.438 109.55 298.438 109.55 298.438 109.55 298.438 109.55 298.438 109.55 298.438 109.55 298.438 109.55 298.438 109.55 298.438 109.55 298.438 109.55 298.438 109.55 298.438 109.55 298.438 109.55 298.438 109.55 298.438 109.55 298.438 109.55 298.438 109.55 298.438 109.55 298.438 109.55 298.438 109.55 298.438 109.55 298.438 109.55 298.438 109.55 298.438 109.55 298.438 109.55 298.438 109.55 298.438 109.55 298.438 109.55 298.438 109.55 298.438 109.55 298.438 109.55 298.438 109.55 298.438 109.55 298.438 109.55 298.438 109.55 298.438 109.55 298.438 109.55 298.438 109.55 298.438 109.55 298.438 109.55 298.438 109.55 298.438 109.55 298.438 109.55 298.438 109.55 298.438 109.55 298.438 109.55 298.438 109.55 298.438 109.55 298.438 109.55 298.438 109.55 298.438 109.55 298.438 109.55 298.438 109.55 298.438 109.55 298.438 109.55 298.438 109.55 298.438 109.55 298.438 109.55 298.438 109.55 298.438 109.55 298.438 109.55 298.438 109.55 298.438 109.55 298.438 109.55 298.438 109.55 298.438 109.55 298.438 109.55 298.438 109.55 298.438 109.55 298.438 109.55 298.438 109.55 298.438 109.55 298.438 109.55 298.438 109.55 298.438 109.55 298.438 109.55 298.438 109.55 298.438 109.55 298.438 109.55 298.438 109.55 298.438 109.55 298.438 109.55 298.438 109.55 298.438 109.61 298.438 109.61 298.438 109.61 298.438 109.61 298.438 109.61 298.438 109.61 298.438 109.61 298.438 109.61 298.438 109.61 298.438 109.61 298.438 109.61 298.438 109.61 298.438 109.61 298.438 109.61 298.438 109.61 298.438 109.61 298.438 109.61 298.438 109.61 298.438 109.61 298.438 109.61 298.438 109.61 298.438 109.61 298.438 109.61 298.438 109.61 298.438 109.61 298.438 109.61 298.438 109.61 298.438 109.61 298.438 109.61 298.438 109.61 298.438 109.61 298.438 109.61 298.438 109.61 298.438 109.61 298.438 109.61 298.438 109.61 298.438 109.61 298.438 133.874C298.438 135.195 297.658 136.336 296.517 136.817L257.477 159.339 257.477 193.213ZM259.039 236.757 289.129 219.399 290.27 218.739 259.039 200.721 259.039 236.757ZM197.237 272.372 234.955 250.631 234.955 175.976 198.919 196.817 198.859 196.817 198.799 196.877 198.739 196.877 198.679 196.877 198.619 196.877 198.559 196.877 198.499 196.877 198.438 196.877 198.378 196.877 198.318 196.877 198.318 196.877C198.138 196.937 197.958 196.997 197.778 197.057L197.718 197.057 197.718 197.057 197.658 197.057 197.658 197.057 197.598 197.057 197.598 197.057 197.538 197.057 197.538 197.057 197.477 197.057 197.477 197.057 197.417 197.057 197.417 197.057 197.357 197.057 197.357 197.057 197.297 197.057 197.297 197.057 197.237 197.057 197.237 197.057 197.177 197.057 197.177 197.057 197.117 197.057 197.117 197.057 197.057 197.057 197.057 197.057 196.997 197.057 196.997 197.057 196.937 197.057 196.937 197.057 196.877 197.057 196.877 197.057 196.817 197.057 196.817 197.057 196.757 197.057 196.757 197.057 196.697 197.057C196.577 196.997 196.396 196.997 196.276 196.937L196.276 196.937 196.216 196.937 196.156 196.937 196.096 196.937 196.036 196.937 195.976 196.937 195.916 196.937 195.856 196.937 195.796 196.937 195.736 196.937 195.676 196.937 195.616 196.877 195.556 196.877 47.4474 114.174 47.4474 141.502 238.198 248.649C239.76 249.55 240.3 251.532 239.399 253.093 238.499 254.655 236.517 255.195 234.955 254.294L44.2042 147.147 9.72973 167.087 197.237 272.372Z" stroke="#000000" stroke-width="8.00799" fill="#221F20" transform="matrix(1 0 0 1.12745 1427 1186.35)"/></g></svg>