<svg width="285" height="265" xmlns="http://www.w3.org/2000/svg" xmlns:xlink="http://www.w3.org/1999/xlink" xml:space="preserve" overflow="hidden"><defs><clipPath id="clip0"><rect x="1125" y="1265" width="285" height="265"/></clipPath></defs><g clip-path="url(#clip0)" transform="translate(-1125 -1265)"><path d="M247.305 136.063 10.8085 136.063C4.87818 136.063 0 131.233 0 125.254L0 10.8563C0 4.87818 4.87818 0 10.8085 0L247.257 0C253.235 0 258.065 4.87818 258.065 10.8563L258.065 125.254C258.113 131.233 253.283 136.063 247.305 136.063ZM10.8085 7.1738C8.79986 7.1738 7.1738 8.79986 7.1738 10.8563L7.1738 125.254C7.1738 127.263 8.79986 128.937 10.8085 128.937L247.257 128.937C249.265 128.937 250.892 127.311 250.892 125.254L250.892 10.8563C250.892 8.84768 249.265 7.1738 247.257 7.1738L10.8085 7.1738Z" stroke="#000000" stroke-width="4.78253" transform="matrix(1.09539 0 0 1 1126.11 1265)"/><path d="M86.4681 92.8289C74.2727 92.8289 57.1512 85.416 40.508 78.1944 26.4474 72.1206 11.9563 65.8076 3.53907 65.6641 1.53041 65.5685-0.0478253 63.9424 0 61.9816 0.0478253 60.0208 1.62606 58.4903 3.68255 58.4903 13.4867 58.6816 28.0256 64.9946 43.3775 71.6423 60.9773 79.2465 80.9204 87.9029 90.5333 85.2247 95.4115 83.8856 101.485 81.2074 107.846 78.4335 120.855 72.7423 135.537 66.2859 147.732 67.5293 156.054 68.3902 161.65 70.7336 167.054 72.9814 172.458 75.2292 177.528 77.3813 185.371 77.9552 194.745 78.6248 213.779 68.4858 230.566 59.5425 238.6 55.2382 246.205 51.1731 253.091 48.0644 254.909 47.2514 257.013 48.0644 257.826 49.834 258.639 51.6513 257.826 53.7556 256.057 54.5687 249.409 57.5817 241.9 61.599 233.961 65.8076 215.501 75.6596 196.419 85.7508 184.94 85.0334 175.901 84.4117 170.019 81.9247 164.376 79.5335 159.258 77.3813 154.38 75.3249 147.111 74.6075 136.78 73.5553 123.007 79.5813 110.811 84.9377 104.164 87.8551 97.8984 90.5811 92.542 92.0637 90.629 92.5898 88.6203 92.8289 86.4681 92.8289Z" stroke="#000000" stroke-width="4.78253" transform="matrix(1.09539 0 0 1 1126.11 1265)"/><path d="M186.997 47.0123C170.593 47.0123 154.811 41.8471 139.459 36.7777 127.072 32.7125 114.207 28.5039 101.485 27.2604 84.0291 25.5865 70.4467 30.2256 56.0034 35.1516 44.3819 39.1211 32.3299 43.2341 18.078 43.808 14.7302 43.9515 9.46941 44.1906 3.63472 44.2384 3.63472 44.2384 3.5869 44.2384 3.5869 44.2384 1.62606 44.2862 0.0478253 42.708 0 40.7472 0 38.7385 1.57824 37.1124 3.53907 37.1124 9.27811 37.0168 14.4432 36.8255 17.7432 36.682 30.9908 36.1081 41.9906 32.3777 53.7078 28.4082 68.1989 23.4822 83.216 18.4127 102.155 20.1823 115.689 21.4736 128.889 25.8257 141.659 30.0343 158.589 35.582 174.61 40.8428 191.397 39.7428 201.201 39.1211 209.953 35.3907 218.418 31.7082 221.527 30.3691 224.635 29.03 227.744 27.8343 235.396 24.9648 241.948 23.3387 248.357 22.8127 250.365 22.6692 252.47 22.5735 254.526 22.5735 256.487 22.5735 258.113 24.1996 258.113 26.1604 258.113 28.1213 256.487 29.7473 254.526 29.7473 252.661 29.7473 250.748 29.7952 248.931 29.9386 243.192 30.4169 237.405 31.8038 230.279 34.482 227.314 35.6777 224.348 36.969 221.335 38.2602 212.297 42.1341 202.971 46.1514 191.971 46.8688 190.297 46.9644 188.623 47.0123 186.997 47.0123Z" stroke="#000000" stroke-width="4.78253" transform="matrix(1.09539 0 0 1 1126.11 1265)"/><path d="M91.0116 125.35C84.7464 125.35 78.4335 124.346 72.1206 122.385 67.0989 120.855 62.4598 118.942 57.9643 117.076 47.8731 112.916 38.3081 108.994 25.8735 109.568 18.0301 109.998 10.8563 111.911 4.5434 113.585 2.63039 114.111 0.669554 112.963 0.143476 111.05-0.382602 109.137 0.765205 107.177 2.67822 106.65 9.32593 104.881 16.8823 102.872 25.4909 102.394 39.5993 101.772 50.3122 106.172 60.6903 110.429 65.0424 112.198 69.538 114.063 74.2249 115.498 90.9637 120.711 107.559 118.081 124.872 107.511 141.037 97.7549 158.302 101.055 175.041 104.259 187.332 106.603 198.905 108.85 210.097 106.268 220.427 103.877 228.748 99.2375 235.587 91.9681L236.448 91.1072C240.8 86.6116 245.726 81.4943 253.952 79.9639 255.865 79.5813 257.778 80.9204 258.113 82.8334 258.448 84.7943 257.157 86.6595 255.244 86.9942 249.313 88.0942 245.583 91.9681 241.613 96.0332L240.8 96.8941C233.148 105.072 223.344 110.572 211.723 113.25 199.049 116.168 186.184 113.681 173.701 111.289 157.632 108.229 142.424 105.311 128.602 113.633 115.881 121.476 103.446 125.35 91.0116 125.35Z" stroke="#000000" stroke-width="4.78253" transform="matrix(1.09539 0 0 1 1126.11 1265)"/><path d="M86.2768 66.3337C85.129 66.3337 84.0291 66.238 83.0247 66.0467 71.1641 63.8468 59.4469 58.7295 58.9208 58.5382 57.6295 57.9643 56.8165 56.7686 56.7686 55.3817 56.7208 53.9948 57.486 52.7035 58.6816 52.0818 59.4947 51.6513 80.3465 41.0341 94.0245 42.2776 100.672 42.8993 102.872 43.808 105.024 44.7167 107.033 45.5775 108.898 46.3427 116.55 46.9644 118.081 47.0601 119.372 48.1601 119.755 49.6427 120.137 51.1252 119.563 52.6557 118.32 53.5165 117.507 53.9948 99.094 66.3337 86.2768 66.3337ZM69.6336 54.9513C73.7944 56.386 79.1031 58.0121 84.316 59.0164 89.9594 60.0686 98.8071 56.2426 105.742 52.56 104.259 52.1296 103.255 51.747 102.25 51.3165 100.481 50.5513 98.9027 49.9296 93.4028 49.4035 86.2768 48.734 76.4248 52.1296 69.6336 54.9513Z" stroke="#000000" stroke-width="4.78253" transform="matrix(1.09539 0 0 1 1126.11 1265)"/><path d="M173.271 16.9302C157.393 16.9302 142.519 12.0042 131.233 6.83902 129.415 6.02599 128.65 3.87385 129.463 2.10431 130.276 0.286952 132.428-0.478253 134.198 0.334777 150.171 7.65205 173.845 14.4432 196.084 5.49991 200.531 3.68255 205.075 1.91301 209.666 0.239127 211.531-0.430428 213.588 0.526078 214.257 2.34344 214.927 4.20863 213.97 6.26511 212.153 6.93467 207.657 8.60855 203.162 10.3303 198.81 12.0998 190.297 15.591 181.641 16.9302 173.271 16.9302Z" stroke="#000000" stroke-width="4.78253" transform="matrix(1.09539 0 0 1 1126.11 1265)"/><path d="M247.305 265 10.8085 265C4.87818 265 0 260.122 0 254.144L0 139.746C0 133.767 4.87818 128.937 10.8085 128.937L247.257 128.937C253.235 128.937 258.065 133.815 258.065 139.746L258.065 254.144C258.113 260.122 253.283 265 247.305 265ZM10.8085 136.063C8.79986 136.063 7.1738 137.689 7.1738 139.698L7.1738 254.096C7.1738 256.104 8.79986 257.731 10.8085 257.731L247.257 257.731C249.265 257.731 250.892 256.104 250.892 254.096L250.892 139.746C250.892 137.737 249.265 136.111 247.257 136.111L10.8085 136.111Z" stroke="#000000" stroke-width="4.78253" transform="matrix(1.09539 0 0 1 1126.11 1265)"/><path d="M254.574 219.136C254.478 219.136 254.383 219.136 254.239 219.136 239.127 217.796 223.488 215.118 208.375 212.488 182.454 208.04 155.671 203.401 131.137 205.601 122.05 206.414 113.011 206.892 104.307 207.371 92.7333 207.992 80.7291 208.614 68.7728 210.097 64.325 210.623 59.9729 211.149 55.6687 211.723 40.508 213.636 26.2083 215.453 9.94766 215.549 7.939 215.549 5.83469 215.692 3.82602 215.788 1.86519 215.931 0.143476 214.401 0.0478253 212.44-0.0956506 210.479 1.43476 208.757 3.3956 208.662 5.54774 208.518 7.79552 208.375 9.94766 208.375 25.73 208.279 39.8385 206.51 54.8078 204.597 59.1121 204.071 63.4642 203.497 67.9598 202.971 80.1552 201.488 92.255 200.818 103.972 200.197 112.629 199.718 121.62 199.24 130.563 198.427 156.054 196.179 183.314 200.866 209.666 205.41 224.635 207.992 240.131 210.67 254.957 211.962 256.918 212.153 258.4 213.875 258.209 215.836 257.97 217.701 256.391 219.136 254.574 219.136Z" stroke="#000000" stroke-width="4.78253" transform="matrix(1.09539 0 0 1 1126.11 1265)"/><path d="M3.5869 249.409C1.86519 249.409 0.334777 248.165 0.0478253 246.396-0.239127 244.435 1.05216 242.618 3.01299 242.283L5.64339 241.853C19.1779 239.7 33.1908 237.453 47.1557 237.453 64.0381 237.453 79.1509 235.779 93.7854 234.105 122.624 230.901 152.419 227.553 195.175 237.5 209.762 240.896 228.653 239.127 246.97 237.453L254.239 236.783C256.248 236.64 257.97 238.074 258.113 240.035 258.304 241.996 256.822 243.766 254.861 243.909L247.592 244.579C228.748 246.348 209.236 248.165 193.501 244.483 151.941 234.774 124.059 237.883 94.5506 241.183 79.7248 242.857 64.3729 244.531 47.1079 244.531 33.7168 244.531 20.6127 246.635 6.74337 248.835L4.11298 249.265C3.9695 249.409 3.7782 249.409 3.5869 249.409Z" stroke="#000000" stroke-width="4.78253" transform="matrix(1.09539 0 0 1 1126.11 1265)"/><path d="M3.5869 164.997C1.91301 164.997 0.382602 163.802 0.0478253 162.08-0.334777 160.119 0.956506 158.254 2.91734 157.919 10.0911 156.58 73.651 144.863 94.2159 144.863 109.137 144.863 122.624 145.676 136.924 146.489 142.472 146.824 148.115 147.158 153.95 147.445 160.406 147.732 168.967 148.88 178.914 150.267 200.579 153.232 227.601 156.867 250.27 153.95 251.418 153.854 252.518 153.615 253.57 153.28 255.435 152.706 257.491 153.806 258.018 155.671 258.591 157.584 257.491 159.545 255.626 160.119 254.096 160.597 252.565 160.884 251.083 161.028 227.601 164.089 200.053 160.358 177.958 157.345 168.202 156.006 159.784 154.858 153.615 154.619 147.732 154.332 142.089 153.997 136.541 153.663 122.337 152.85 108.946 152.037 94.2159 152.037 78.0509 152.037 30.0821 160.167 4.25645 164.997 4.01733 164.949 3.82602 164.997 3.5869 164.997Z" stroke="#000000" stroke-width="4.78253" transform="matrix(1.09539 0 0 1 1126.11 1265)"/><path d="M3.5869 190.01C1.62606 190.01 0.0478253 188.48 0 186.519-0.0478253 184.558 1.53041 182.884 3.49125 182.836L8.89551 182.74C18.1258 182.597 27.643 182.406 36.2994 180.827L41.608 179.823C59.7816 176.428 78.5291 172.888 98.0419 172.888 138.693 172.888 217.749 175.758 254.861 179.345 256.822 179.536 258.257 181.306 258.065 183.267 257.874 185.227 256.104 186.662 254.144 186.471 217.175 182.932 138.502 180.062 97.994 180.062 79.1987 180.062 60.7381 183.506 42.8993 186.853L37.5429 187.858C28.2648 189.532 18.4606 189.723 8.94333 189.866L3.5869 189.962C3.63472 190.01 3.63472 190.01 3.5869 190.01Z" stroke="#000000" stroke-width="4.78253" transform="matrix(1.09539 0 0 1 1126.11 1265)"/></g></svg>